<svg version="1.2" baseProfile="tiny" xmlns="http://www.w3.org/2000/svg" x="0" y="0" width="102" height="102" viewBox="0" xml:space="preserve"><path fill="#83506F" d="M35 69.6v5.6L14.7 84.6c0 6.3 0.1 12.1 0.2 17.4h70.5c0.2-4.8 0.3-10 0.3-15.7L63.5 75.7v-6H60.8v-7.1l3-2 0.9-6.6 2-0.7 1.6-9.9 -2-1.2 1.3-16 -5.1-5.1 2.8-2.7 -8.9-2.7h-7.8l-10.1 3.4 -6.7 7.9 0.8 15.2 -2.3 1.5 1.7 8.5h2.1l0.8 6.8 2.5 2.8v7.8H35z"/><path fill="#FFFFFF" d="M52.1 50.5c-1.1 0-2.2 0-3.3 0 -0.7 0-1.4 0-2 0 -0.4 0-0.6 0.1-0.6-0.3 0-1.5-0.2-3.2 0.2-4.7 0.5-1.5 2-2.6 3-3.7 1.1-1.1 2.2-2 2.1-3.7 -0.1-1.1-0.8-2.1-2-2.3 -1.4-0.2-2.3 1-2.6 2.2 -0.2 0.9 0 1-0.8 1 -0.7 0-1.5 0-2.2 0 -1.1 0-2.3 0-3.4 0 0.4-3.7 2.6-7.1 6.4-8 3.5-0.9 8 0.1 9.8 3.4 1.7 3.1 0.9 6.6-1.5 9 -1.2 1.2-3.1 2.4-3.1 4.3C52 48.7 52.1 49.6 52.1 50.5zM46.7 58c-3.1-3.1 1.7-8 4.9-4.9C54.8 56.2 49.9 61.1 46.7 58 46.1 57.3 47.4 58.6 46.7 58z"/></svg>