<svg version="1.2" baseProfile="tiny" xmlns="http://www.w3.org/2000/svg" x="0" y="0" width="102.03" height="102.03" viewBox="0 0 102.03 102.03" xml:space="preserve"><path fill="#83506F" d="M22.69 55.89c-4.54 1.67-1.4 9.94 3.13 8.52C23.72 62.07 22.67 59.01 22.69 55.89 22.65 55.9 22.67 59.26 22.69 55.89zM61.12 30.49c-0.82 1.23-1.7 2.43-2.62 3.59 -0.12 1.32-0.12 2.65-0.02 3.97 0.23 2.91 0.94 5.78 1.98 8.5 1 2.62 2.37 5.06 4.14 7.24 0.42 0.52 0.87 1.03 1.33 1.52 0.53 0.56 0.96 0.51 1.7 0.61 1.07 0.13 2.14 0.33 3.19 0.6 -3.08-3.56-5.32-7.84-6.98-12.22C62.19 39.9 61.07 35.19 61.12 30.49 60.3 31.72 61.07 35.02 61.12 30.49zM32.06 50.04c-2.24 0.95-4.47 1.91-6.7 2.87 -0.73 0.31-0.62 0.63-0.69 1.48 -0.1 1.19-0.06 2.39 0.15 3.56 0.5 2.8 2.05 5.44 4.35 7.14 0.62 0.46 0.77 0.23 1.53-0.05 1.06-0.39 2.12-0.77 3.18-1.15 0.54-0.19 0.92-0.56 1.29-0.07 0.11 0.14 0.08 0.15 0.18 0.26 0.88 0.97 1.76 1.94 2.65 2.9 0.44 0.49 1.24 1.84 1.95 1.84 0.59 0 2.11-0.32 2.51 0.17 0.57 0.7 1.15 1.39 1.72 2.09 1.95 2.36 3.89 4.73 5.83 7.09 0.6 0.72 1.19 1.45 1.79 2.17 0.41 0.5 1.79-0.2 2.36-0.34 0.21-0.05 0.36-0.46 0.47-0.63 0.38-0.59 0.76-1.18 1.14-1.77 0.62-0.96 1.24-1.92 1.85-2.88 -0.39 0.09-2.1 0.72-2.36 0.41 -0.72-0.84-1.44-1.69-2.16-2.53 -1.55-1.82-3.1-3.65-4.65-5.47 0.44-0.16 1.46-0.3 1.68-0.72 0.38-0.71 0.76-1.42 1.13-2.14 -0.54 0.18-1.07 0.36-1.61 0.55 -0.21 0.07-0.46-0.61-0.55-0.78 -0.58-1.03-1.15-2.06-1.73-3.08 0.51-0.19 1.85-0.42 2.15-0.83 0.53-0.72 1.06-1.43 1.59-2.15 0.19-0.26 1.19-0.41 1.51-0.52 0.55-0.18 1.09-0.35 1.64-0.51 0.91-0.26 2.07-0.72 3.02-0.72 2.13-0.4 4.3-0.61 6.47-0.53 -4.88-5.35-7.64-12.92-7.47-20.15 -3.07 3.54-6.71 6.87-10.97 8.91 -4.11 1.97-8.44 3.54-12.63 5.32"/><path fill="#83506F" d="M80.86 36.62c-1.87-4.42-4.42-8.92-8.14-12.06 -2.16-1.82-5.71-3.68-7.77-0.68 -2.21 3.21-1.75 8.1-1.15 11.71 0.95 5.7 3.15 11.34 6.3 16.18 1.87 2.87 8.75 11.59 12.47 6.2 1.62-2.35 1.69-5.66 1.53-8.39C83.84 45.11 82.59 40.71 80.86 36.62 76.87 27.18 85.49 47.57 80.86 36.62zM75.39 44.77c-2.26 1.31-5.56-6.36-3.26-7.7C74.39 35.75 77.69 43.43 75.39 44.77 74.48 45.29 76.29 44.24 75.39 44.77z"/></svg>
