<svg version="1.2" baseProfile="tiny" xmlns="http://www.w3.org/2000/svg" x="0px" y="0px" width="102.031px" height="102.033px" viewBox="0 0 102.031 102.033" xml:space="preserve"><path fill="#83506F" d="M44.016 80.526l26.742-14.083V37.194L44.016 51.279V80.526zM58.525 51.664c2.025-1.112 3.666-0.373 3.666 1.65 0 1.498-0.9 3.281-2.189 4.556l0.471 6.823 -3.917 2.167 0.497-7.369c-1.289 0.14-2.189-0.652-2.189-2.15C54.863 55.316 56.502 52.774 58.525 51.664z"/><polygon fill="#83506F" points="30.324,78.11 42.588,80.752 42.588,51.429 31.803,49.159 30.324,48.849 30.324,75.026 "/><path fill="#83506F" d="M39.969 46.952c1.637 0.778 3.598 0.401 4.951-0.759 0.068-0.167 0-0.507 0-0.683 0.001-0.633 0.001-1.266 0.001-1.898 0.001-2.458 0.002-4.917 0.003-7.375 0.001-3.726 0.234-7.434 2.408-10.621 2.077-3.044 8.678-6.881 9.81-1.072 0.402 2.061 0.244 4.324 0.267 6.425 0.025 2.421 0.051 4.841 0.076 7.262 1.04 0.501 2.305 0.407 3.373 0.05 0.473-0.158 1.729-0.582 1.726-1.195 -0.009-1.349-0.017-2.698-0.025-4.046 -0.014-2.214-0.057-4.426-0.107-6.64 -0.101-4.42-2.009-9.077-6.838-9.95 -4.879-0.881-9.9 2.375-12.544 6.277 -2.983 4.403-3.349 9.458-3.216 14.599C39.935 40.534 39.938 43.744 39.969 46.952z"/></svg>
