<svg version="1.2" baseProfile="tiny" xmlns="http://www.w3.org/2000/svg" x="0" y="0" width="1088.56" height="1088.56" viewBox="0" xml:space="preserve" fill="none" stroke="#000000" stroke-width="4" stroke-linecap="round" stroke-linejoin="round" stroke-miterlimit="10"><path  d="M671.81 1071.29C381.22 1141.61 87.6 962.4 17.27 671.81 -53.05 381.22 126.16 87.6 416.75 17.27c290.59-70.32 584.22 108.88 654.54 399.48C1141.61 707.34 962.4 1000.97 671.81 1071.29z"/><path  d="M497.18 1054.35"/><path d="M888.27 923.83c-193.65 175.78-493.88 178.08-690.29-2.13C-10.13 730.75-24.09 406.09 166.86 197.98c190.95-208.11 515.61-222.07 723.72-31.12 208.11 190.95 222.07 515.61 31.12 723.71"/><path  d="M1004.34 399.73c74.52 236.54-44.05 495.48-277.65 590.94 -246.14 100.58-528.21-17.84-628.79-263.98s17.84-528.21 263.98-628.79"/><path  d="M394.68 85.84c237.9-77.81 499.85 40.77 595.99 276.03"/><path  d="M115.51 688.04c-74.47-221.57 33.54-467.38 252.28-560.11 229.58-97.32 495.53 10.28 592.85 239.85 97.32 229.58-10.28 495.53-239.85 592.85 -229.58 97.32-495.53-10.28-592.85-239.85"/><path  d="M544.28 966.5"/><path  d="M544.28 966.5c-232.81 0-422.22-189.4-422.22-422.22 0-232.81 189.41-422.22 422.22-422.22 232.81 0 422.22 189.41 422.22 422.22 0 219.25-167.98 400-382 420.32"/><path  d="M386.02 903.18C208.6 825.1 111.98 625.09 167.84 434.15c60.73-207.57 279-327.03 486.57-266.31 207.57 60.73 327.03 279 266.31 486.57C859.99 861.98 641.72 981.44 434.15 920.72"/><path  d="M544.28 182.06"/><path  d="M865.05 376.02c92.78 176.87 24.36 396.25-152.51 489.02S316.29 889.41 223.51 712.54C137 547.6 190.65 345.71 341.71 243.98"/><path  d="M376.03 223.51c163.25-85.63 362.72-33.94 465.42 113.61"/><path  d="M212.06 544.28"/><path  d="M658.63 232.34c156.66 57.29 248.86 224.94 208.4 390.71 -43.43 177.96-223.55 287.41-401.51 243.98 -166.5-40.64-273.03-200.92-250.49-367.14"/><path  d="M221.54 465.51c43.43-177.96 223.55-287.41 401.51-243.98"/><path  d="M641.26 830.54c-14.11 4.77-28.74 8.55-43.83 11.24"/><path  d="M242.48 560.61c-8.23-150.15 96.93-286.73 248.65-313.83 164.05-29.3 321.35 80.32 350.65 244.36 26.61 148.95-61.32 292.35-200.53 339.41"/><path  d="M552.27 846.42c-146.84 3.97-278.89-100.09-305.49-248.99"/><path  d="M544.28 816.5c-150.1 0-272.22-122.12-272.22-272.22S394.18 272.06 544.28 272.06c136.79 0 250.34 101.42 269.4 233.01"/><path  d="M544.28 816.5"/><path  d="M816.5 544.28c0 134.35-97.83 246.28-225.99 268.29"/><path  d="M784.04 578.82"/><path  d="M580.22 304.72c116.58 17.41 206.28 118.21 206.28 239.56"/><path  d="M784.04 578.82C767.23 696.08 666.12 786.5 544.28 786.5c-133.56 0-242.22-108.66-242.22-242.22S410.72 302.06 544.28 302.06"/><path  d="M342.4 609.78c-27.72-85.27 1.7-179.79 73.14-234.24"/><path  d="M444.75 356.85c103.35-54.88 232.08-15.45 286.96 87.9 54.88 103.35 15.45 232.08-87.9 286.96 -103.35 54.88-232.08 15.45-286.96-87.9"/><path  d="M362.06 544.28"/><path  d="M515.95 724.3c-72.47-11.36-130.9-65.58-148.47-135.82"/><path  d="M362.87 561.37c-9.43-100.03 64.29-189.08 164.32-198.51 100.03-9.43 189.08 64.29 198.51 164.32 9.43 100.03-64.29 189.08-164.32 198.51"/><path  d="M544.28 696.5"/><path  d="M649.79 653.99c-60.5 58.18-157.05 56.29-215.23-4.2 -58.18-60.49-56.29-157.04 4.2-215.22 60.5-58.18 157.05-56.29 215.23 4.2 49.74 51.72 55.58 129.78 18.43 187.7"/><path  d="M488.55 653.05c-59.98-30.73-83.77-104.52-53.04-164.5 24.97-48.73 78.36-73.58 129.68-64.7"/><path  d="M422.06 544.28"/><path  d="M600.01 435.51c59.98 30.73 83.77 104.52 53.04 164.5 -25.23 49.24-79.47 74.09-131.28 64.41"/><path  d="M666.5 544.28"/><path  d="M481.44 476.8c24.98-23.19 61.94-31.63 95.86-18.63 47.48 18.2 71.3 71.64 53.09 119.12 -18.2 47.48-71.64 71.3-119.12 53.09 -47.48-18.2-71.3-71.64-53.09-119.12"/><path  d="M606.5 544.28"/><path  d="M533.15 483.07c23.45-4.26 46.27 5.28 60.08 22.82"/><path  d="M544.28 482.06"/><path  d="M607.41 543.77c0.24 34.31-27.48 62.41-61.78 62.65 -34.31 0.24-62.41-27.48-62.65-61.78 -0.15-21.44 10.62-40.46 27.1-51.77"/><path  d="M546.64 576.61c-17.78 0.64-32.71-13.26-33.35-31.04 -0.64-17.78 13.26-32.71 31.04-33.35 17.78-0.64 32.71 13.26 33.35 31.04 0.38 10.52-4.33 20.05-11.93 26.2"/><line  x1="577.3" y1="544.42" x2="607.3" y2="544.54"/><line  x1="566.48" y1="486.39" x2="577.22" y2="458.38"/><line  x1="484.5" y1="614.21" x2="465.01" y2="637.02"/><line  x1="654.75" y1="492.51" x2="681.91" y2="479.77"/><line  x1="558.54" y1="695.61" x2="561.35" y2="725.48"/><line  x1="362.28" y1="544.28" x2="332.28" y2="544.28"/><line  x1="544.28" y1="332.28" x2="544.28" y2="302.28"/><line  x1="786.28" y1="544.28" x2="816.28" y2="544.28"/><line  x1="592.11" y1="812.04" x2="597.39" y2="841.57"/><line  x1="250.89" y1="472.68" x2="221.75" y2="465.56"/><line  x1="390.06" y1="250.27" x2="376.13" y2="223.71"/><line  x1="891.72" y1="645.92" x2="920.51" y2="654.35"/><line  x1="544.28" y1="936.28" x2="544.28" y2="966.28"/><line  x1="155.75" y1="708.98" x2="128.13" y2="720.69"/><line  x1="373.3" y1="125.87" x2="361.96" y2="98.09"/><line  x1="870.15" y1="189.13" x2="890.43" y2="167.02"/><line  x1="664.7" y1="1041.92" x2="671.76" y2="1071.08"/></svg>