
<svg version="1.2" baseProfile="tiny" id="Layer_1" xmlns="http://www.w3.org/2000/svg" x="0px" y="0px" width="120px" height="64.847px" viewBox="0 0 120 64.847" xml:space="preserve"><path fill="#FAFAFA" d="M120 61.199l-1.07 0.713c-0.171 0.113-0.363 0.168-0.554 0.168 -0.323 0-0.641-0.156-0.833-0.445 -0.307-0.46-0.182-1.081 0.277-1.387l2.18-1.451V43.384l-0.508 0.338 -11.651-7.767L120 27.858v-2.403l-13.963 9.298 -9.43-6.286 13.385-8.913c0.459-0.306 0.584-0.927 0.277-1.387 -0.307-0.46-0.927-0.584-1.387-0.278l-14.078 9.376L59.484 3.722 0 43.369v15.406L53.883 22.89c0.459-0.307 1.08-0.182 1.387 0.278 0.306 0.459 0.182 1.081-0.278 1.387L0 61.177v3.67h120V61.199zM0 27.801L38.992 1.833c0.46-0.306 0.584-0.927 0.278-1.387 -0.307-0.46-0.927-0.585-1.387-0.278L0 25.397V27.801z"/></svg>
