<svg version="1.2" baseProfile="tiny" xmlns="http://www.w3.org/2000/svg" x="0" y="0" width="226" height="200" viewBox="0 0 273.62 242.66" xml:space="preserve"> 
<g fill="none" stroke="#F58E90" stroke-width="4" stroke-linecap="round" stroke-linejoin="round" stroke-miterlimit="10">
    <line fill="none" stroke="#F58E90" stroke-width="4" stroke-linecap="round" stroke-linejoin="round" stroke-miterlimit="10" x1="2.32" y1="168.81" x2="102.32" y2="156.53"/> 
    <line x1="166.32" y1="148.67" x2="266.32" y2="136.4"/> 
    <line x1="133.75" y1="140.37" x2="120.48" y2="166.62"/> 
    <line x1="150.65" y1="138.29" x2="137.38" y2="164.55"/> 
</g>
<path fill="#FFFFFF" d="M53.44 43.9v81.06l-26.11 3.21V47.11L0 50.47V28.91l80.61-9.9v21.56L53.44 43.9zM165.85 103.12c-7.74 7.63-18.98 12.65-33.09 14.39 -13.81 1.7-25.05-0.57-32.79-6.3 -8.05-5.84-13.66-16.54-13.66-41.44 0-24.59 5.62-36.67 13.06-44.41 7.74-7.78 19.58-13.33 33.4-15.03 14.12-1.73 25.96 0.91 33.7 6.79 7.44 5.92 13.06 16.61 13.06 41.21C179.51 83.23 173.9 95.3 165.85 103.12zM147.03 35.91c-3.49-2.91-8.5-4.12-14.12-3.43 -5.62 0.69-10.63 3.13-14.12 6.9 -3.34 3.45-5.92 11.2-5.92 27.14 0 15.64 2.43 22.63 5.62 25.27 3.49 3.06 8.5 4.27 14.42 3.54 5.92-0.73 10.93-3.16 14.42-7.08 3.19-3.43 5.62-11.01 5.62-26.65C152.95 45.65 150.37 38.53 147.03 35.91zM249.79 62.3l23.83 35.63 -30.06 3.69 -21.56-32.57 -3.95 0.48v35.22l-26.11 3.21V5.34l39.47-4.85c10.93-1.34 19.74 0.01 25.66 4.59 6.68 5.25 10.63 14.48 10.63 25.41 0 11.08-4.25 20.26-10.78 26.68C254.95 59.09 252.67 60.58 249.79 62.3zM238.71 23.89c-1.97-1.58-4.55-2.17-8.05-1.74l-12.6 1.55v25.81l12.6-1.55c3.34-0.41 6.07-1.96 8.05-4.02 1.97-2.06 2.89-5.97 2.89-10.52S240.68 25.47 238.71 23.89z"/> 
<path fill="#FFF3CA" d="M21.81 230.77c0 5.7-3.27 10.85-10.75 11.77 -7.42 0.91-11.05-3.75-11.05-9.63v-19.36c0-5.82 3.62-11.37 11.05-12.28 7.48-0.92 10.75 3.31 10.75 9.07v4.28l-5.05 0.62v-4.16c0-3.32-1.78-5.3-5.52-4.84 -3.8 0.47-5.58 2.94-5.58 5.97v20.67c0 3.03 1.78 5.07 5.58 4.6 3.74-0.46 5.52-2.81 5.52-6.2v-4.16l5.05-0.62V230.77zM49.27 236.96v-17.34l-11.22 1.38v17.34l-5.64 0.69v-39.55l5.64-0.69v17.16l11.23-1.38v-17.16l5.58-0.69v39.55L49.27 236.96zM82.96 232.82l-2.08-9.42 -8.55 1.05 -2.08 9.94 -5.46 0.67 8.97-40.65 5.94-0.73 8.97 38.45L82.96 232.82zM76.6 202.9l-3.27 16.61 6.53-0.8L76.6 202.9zM98.6 230.9V191.35l5.58-0.68v34.44l12.53-1.54v5.11L98.6 230.9zM126.81 227.44v-39.55l5.58-0.69v34.44l12.53-1.54v5.11L126.81 227.44zM155.02 223.98v-39.55l18.41-2.26v5.11l-12.83 1.57v11.28l9.27-1.14v4.87l-9.26 1.14v13.18l12.83-1.58v5.11L155.02 223.98zM202.39 218.16l-9.8-18.04 -3.32-6.54v26.19l-5.34 0.66v-39.55l4.57-0.56 9.38 18.45 3.15 6.56v-26.55l5.35-0.66v39.55L202.39 218.16zM236.53 213.97l-1.07-2.9c-1.37 2.72-4.16 4.43-7.72 4.87 -6.89 0.85-10.27-3.55-10.27-9.61v-19.6c0-5.88 3.62-11.25 11.05-12.17 7.48-0.92 10.57 3.16 10.57 9.51v2.32l-5.34 0.66v-2.97c0-2.67-1.6-4.97-5.23-4.52 -3.68 0.45-5.4 3.28-5.4 5.95v20.67c0 2.73 1.66 5.14 5.4 4.68 3.74-0.46 5.46-3.28 5.46-6.02v-6.12l-5.28 0.65v-4.75l10.63-1.31v20.31L236.53 213.97zM250.27 212.28v-39.55l18.41-2.26v5.11l-12.83 1.57v11.28l9.27-1.14v4.87l-9.26 1.14v13.18l12.83-1.58v5.11L250.27 212.28z"/> 
</svg>